<mxfile host="app.diagrams.net" modified="2024-03-22T11:11:16.915Z" agent="Mozilla/5.0 (Windows NT 10.0; Win64; x64) AppleWebKit/537.36 (KHTML, like Gecko) Chrome/123.0.0.0 Safari/537.36" version="24.0.7" etag="-9GIa3djkMZ8-KqGLqct" type="github">
  <diagram name="PÃ¡gina-1" id="natGKzl_UxquRcQtaPaR">
    <mxGraphModel>
      <root>
        <mxCell id="0" />
        <mxCell id="1" parent="0" />
      </root>
    </mxGraphModel>
  </diagram>
</mxfile>
